<?xml version="1.0" standalone="no"?>
<!DOCTYPE svg PUBLIC "-//W3C//DTD SVG 20010904//EN"
 "http://www.w3.org/TR/2001/REC-SVG-20010904/DTD/svg10.dtd">
<svg version="1.0" xmlns="http://www.w3.org/2000/svg"
 width="520.000000pt" height="520.000000pt" viewBox="0 0 520.000000 520.000000"
 preserveAspectRatio="xMidYMid meet">
<metadata>
Created by potrace 1.14, written by Peter Selinger 2001-2017
</metadata>
<g transform="translate(0.000000,520.000000) scale(0.100000,-0.100000)"
fill="#000000" stroke="none">
<path d="M2467 4904 c-1 -1 -37 -4 -80 -8 -362 -29 -756 -167 -1063 -373 -329
-221 -568 -484 -758 -833 -125 -230 -223 -533 -251 -775 -3 -27 -9 -79 -13
-115 -13 -111 -5 -420 14 -514 2 -12 7 -40 10 -64 12 -85 52 -245 89 -357 240
-712 828 -1269 1558 -1476 66 -19 189 -46 247 -55 19 -3 46 -7 60 -10 91 -17
411 -23 535 -11 451 45 881 222 1230 505 102 82 264 245 341 342 32 41 62 77
67 78 4 2 7 10 7 18 0 8 5 14 10 14 6 0 10 6 10 14 0 8 3 16 8 18 16 7 108
158 166 275 44 88 125 286 141 348 5 17 9 35 11 40 38 130 70 302 81 440 13
148 7 401 -12 520 -64 402 -194 721 -423 1040 -109 151 -301 349 -437 450 -22
17 -42 32 -45 35 -52 56 -353 226 -515 290 -11 4 -42 17 -70 28 -133 53 -381
109 -570 128 -62 6 -342 13 -348 8z"/>
</g>
</svg>
